<svg height="512pt" viewBox="0 -4 512.00015 512" width="512pt" xmlns="http://www.w3.org/2000/svg"><path d="m110.964844 209.324219c-3.917969-3.917969-10.800782-2.328125-12.617188 2.898437l-97.929687 282.273438c-2.050781 5.90625 3.804687 11.765625 9.71875 9.71875l282.273437-97.929688c5.226563-1.8125 6.816406-8.699218 2.898438-12.617187zm86.570312 213.707031-153.371094-8.019531 10.117188-29.167969 119.9375 6.269531c4.195312.207031 7.804688-3.015625 8.023438-7.226562.21875-4.214844-3.015626-7.808594-7.226563-8.027344l-115.523437-6.039063 5.910156-17.03125 177.71875 9.292969 18.292968 18.292969-50.1875-2.625c-4.222656-.214844-7.808593 3.019531-8.027343 7.230469-.21875 4.214843 3.015625 7.804687 7.230469 8.027343l61.492187 3.214844zm-81.734375 28.355469-82.757812-4.324219 5.90625-17.027344 120.273437 6.289063zm-35.066406-141.785157 114.910156 6.007813 31.335938 31.335937-156.367188-8.175781zm11.121094-32.050781 69.359375 3.628907 18.292968 18.289062-93.5625-4.890625 4.34375-12.523437zm16.929687-48.800781 36.289063 36.285156-48.007813-2.507812zm-80.953125 233.335938 49.652344 2.59375-57.472656 19.941406zm0 0"/><path d="m153.226562 187.722656c-4.25 9.003906-6.070312 19.007813-5.261718 28.929688.324218 3.992187 3.664062 7.019531 7.601562 7.019531.210938 0 .417969-.007813.628906-.027344 4.203126-.34375 7.335938-4.027343 6.992188-8.230469-.589844-7.261718.742188-14.582031 3.851562-21.167968 1.976563-4.183594 4.65625-7.84375 9.304688-9.097656 4.417969-1.191407 9.175781-.847657 13.699219-.761719 29.671875.5 51.355469-9.679688 59.410156-27.980469 4.855469-11.035156 3.976563-22.824219 3.125-34.222656-.894531-12.003906-1.667969-22.375 4.253906-29.488282 4.300781-5.164062 11.640625-7.59375 19.414063-10.167968 6.738281-2.234375 13.707031-4.542969 19.953125-8.863282 3.46875-2.398437 4.335937-7.15625 1.9375-10.628906-2.398438-3.46875-7.15625-4.332031-10.625-1.933594-4.445313 3.074219-10.089844 4.941407-16.070313 6.925782-9.023437 2.988281-19.253906 6.375-26.347656 14.894531-9.875 11.863281-8.746094 27.023437-7.746094 40.398437.742188 9.972657 1.445313 19.386719-1.875 26.933594-7.746094 17.597656-34.164062 19.054688-45.164062 18.859375l-1.1875-.019531c-7.921875-.15625-16.898438-.328125-24.734375 4.835938-4.539063 2.992187-8.1875 7.503906-11.160157 13.792968zm0 0"/><path d="m440.265625 198.804688c10.054687-2.648438 20.449219-5.390626 29.957031-11.015626 13.523438-7.996093 25.441406-23.917968 21.578125-41.457031-.910156-4.117187-4.984375-6.726562-9.105469-5.816406-4.117187.910156-6.722656 4.984375-5.8125 9.105469 2.109376 9.574218-5.667968 19.835937-14.4375 25.023437-7.679687 4.542969-16.613281 6.894531-26.074218 9.390625-3.394532.894532-6.90625 1.820313-10.371094 2.859375-18.519531 5.542969-30.695312 13.878907-37.222656 25.480469-5.558594 9.875-6.460938 21.039062-7.332032 31.832031-.988281 12.210938-1.839843 22.757813-9.054687 28.78125-6.097656 5.089844-14.917969 5.320313-25.132813 5.585938-8.527343.222656-17.34375.453125-25.78125 3.652343-12.148437 4.605469-22.5 15.515626-28.398437 29.933594-4.996094 12.21875-6.46875 24.980469-7.894531 37.324219-.480469 4.1875 2.523437 7.976563 6.714844 8.460937.296874.035157.589843.050782.882812.050782 3.828125 0 7.128906-2.867188 7.578125-6.761719 1.304687-11.316406 2.65625-23.019531 6.855469-33.292969 4.300781-10.507812 11.472656-18.320312 19.675781-21.433594 6.015625-2.277343 13.179687-2.464843 20.765625-2.664062 11.410156-.296875 24.34375-.632812 34.519531-9.128906 12.140625-10.128906 13.390625-25.613282 14.492188-39.273438.777343-9.574218 1.503906-18.621094 5.417969-25.570312 4.496093-7.988282 13.75-13.988282 28.296874-18.34375 3.222657-.964844 6.457032-1.820313 9.882813-2.722656zm0 0"/><path d="m335.15625 153.136719c.734375 3.621093 3.917969 6.121093 7.476562 6.121093.503907 0 1.015626-.050781 1.527344-.152343 4.132813-.839844 6.808594-4.867188 5.96875-9.003907-4.195312-20.699218 7.621094-43.667968 26.902344-52.289062 3.148438-1.40625 6.566406-2.53125 10.183594-3.722656 8.042968-2.648438 16.355468-5.382813 23.25-11.695313 7.507812-6.875 11.046875-15.90625 14.46875-24.640625 3.136718-8.011718 6.101562-15.585937 11.777344-19.765625 5.328124-3.921875 12.757812-4.800781 21.910156-5.539062 4.207031-.339844 7.339844-4.023438 7-8.230469-.34375-4.203125-4.023438-7.34375-8.230469-6.996094-9.128906.738282-20.488281 1.65625-29.738281 8.46875-9.226563 6.796875-13.328125 17.257813-16.945313 26.492188-2.910156 7.441406-5.664062 14.464844-10.558593 18.949218-4.472657 4.09375-10.902344 6.210938-17.707032 8.449219-3.824218 1.257813-7.78125 2.558594-11.644531 4.289063-25.542969 11.417968-41.199219 41.84375-35.640625 69.265625zm0 0"/><path d="m119.449219 84.605469 27.359375 17.703125c3.496094 2.261718 8.300781 1.230468 10.5625-2.261719l17.703125-27.359375c2.289062-3.542969 1.277343-8.273438-2.265625-10.5625l-27.359375-17.703125c-3.539063-2.289063-8.265625-1.277344-10.558594 2.261719l-17.703125 27.359375c-2.292969 3.542969-1.277344 8.273437 2.261719 10.5625zm24.117187-23.210938 14.53125 9.40625-9.402344 14.53125-14.535156-9.402343zm0 0"/><path d="m280.824219 175.851562c-4.15625-.199218-7.796875 3.109376-7.996094 7.261719l-1.574219 32.546875c-.207031 4.214844 3.042969 7.796875 7.257813 8l32.550781 1.574219c4.152344.203125 7.792969-3.105469 7.996094-7.257813l1.574218-32.550781c.203126-4.210937-3.042968-7.792969-7.257812-7.996093zm23.347656 33.757813-17.292969-.835937.839844-17.292969 17.289062.835937zm0 0"/><path d="m324.300781 54.699219c1.855469 3.726562 6.507813 5.296875 10.238281 3.441406l29.183594-14.5c3.777344-1.875 5.320313-6.460937 3.441406-10.238281l-14.5-29.183594c-1.847656-3.722656-6.507812-5.292969-10.238281-3.441406l-29.183593 14.5c-3.71875 1.851562-5.292969 6.507812-3.441407 10.238281zm18.082031-36.84375 7.703126 15.503906-15.503907 7.703125-7.703125-15.503906zm0 0"/><path d="m480.589844 346.363281-24.4375-21.558593c-3.164063-2.792969-7.992188-2.492188-10.78125.671874l-21.558594 24.4375c-2.789062 3.164063-2.488281 7.988282.675781 10.78125l24.4375 21.558594c1.449219 1.28125 3.253907 1.910156 5.046875 1.910156 2.117188 0 4.222656-.875 5.730469-2.585937l21.558594-24.4375c1.339843-1.519531 2.023437-3.507813 1.898437-5.53125-.128906-2.019531-1.050781-3.910156-2.570312-5.246094zm-27.285156 19.382813-12.984376-11.453125 11.453126-12.984375 12.984374 11.453125zm0 0"/><path d="m511.421875 234.824219-12.40625-30.132813c-1.605469-3.902344-6.070313-5.757812-9.972656-4.152344l-30.132813 12.40625c-3.839844 1.582032-5.738281 6.121094-4.152344 9.96875l12.40625 30.132813c1.582032 3.84375 6.121094 5.742187 9.972657 4.15625l30.132812-12.410156c3.898438-1.605469 5.757813-6.070313 4.152344-9.96875zm-33.039063 5.34375-6.59375-16.007813 16.007813-6.589844 6.59375 16.007813zm0 0"/></svg>