<svg width="512" height="512" xmlns="http://www.w3.org/2000/svg">

 <g>
  <title>background</title>
  <rect fill="none" id="canvas_background" height="602" width="802" y="-1" x="-1"/>
 </g>
 <g>
  <title>Layer 1</title>
  <g id="flat">
   <path id="svg_1" fill="#ffffff" d="m313.992,328a8,8 0 0 1 -6.648,-12.439a86.994,86.994 0 0 0 14.656,-48.406l0,-75.155a8,8 0 0 1 16,0l0,75.155a102.942,102.942 0 0 1 -17.344,57.283a7.992,7.992 0 0 1 -6.664,3.562z"/>
   <path id="svg_2" fill="#ff007f" d="m162.251,328a7.972,7.972 0 0 1 -5.4,-2.1l-96.251,-88a8,8 0 1 1 10.8,-11.8l96.253,88a8,8 0 0 1 -5.4,13.9l-0.002,0z"/>
   <path id="svg_3" fill="#ff007f" d="m465.992,392a7.957,7.957 0 0 1 -3.954,-1.051l-112.253,-64a8,8 0 0 1 7.924,-13.9l112.253,64a8,8 0 0 1 -3.97,14.951z"/>
   <rect id="svg_4" y="320" x="146" width="224" rx="16.253" height="168" fill="#ff6bb0"/>
   <path id="svg_5" fill="#ffaad2" d="m363.865,323.547c-37.965,81.753 -120.789,138.453 -216.865,138.453c-0.334,0 -0.666,-0.011 -1,-0.013l0,9.76a16.253,16.253 0 0 0 16.253,16.253l191.494,0a16.253,16.253 0 0 0 16.253,-16.253l0,-135.494a16.209,16.209 0 0 0 -6.135,-12.706z"/>
   <path id="svg_6" fill="#ffffff" d="m217.994,304a7.967,7.967 0 0 1 -4.794,-1.6a88.42,88.42 0 0 1 -35.2,-70.4l0,-64a8,8 0 0 1 16,0l0,64a72.346,72.346 0 0 0 28.8,57.6a8,8 0 0 1 -4.806,14.4z"/>
   <path id="svg_7" fill="#ffffff" d="m146,376l224,0l0,56l-224,0l0,-56z"/>
   <path id="svg_11" fill="#ffffff" d="m74.006,192a7.986,7.986 0 0 1 -6.342,-3.115c-8.594,-11.147 -11.764,-21.522 -9.423,-30.835c1.894,-7.537 6.759,-12.145 10.659,-15.85c3.163,-3 4.961,-4.8 5.125,-6.844c0.2,-2.52 -1.78,-5.931 -5.584,-9.605a8,8 0 0 1 11.118,-11.508c7.52,7.266 11.025,14.8 10.416,22.395c-0.663,8.259 -5.877,13.2 -10.067,17.173c-3.341,3.168 -5.426,5.255 -6.149,8.135c-1.353,5.383 2.83,12.306 6.577,17.166a8,8 0 0 1 -6.33,12.888z"/>
   <path id="svg_12" fill="#ffffff" d="m449.965,184a7.986,7.986 0 0 1 -6.342,-3.115c-8.592,-11.147 -11.763,-21.52 -9.423,-30.834c1.894,-7.538 6.754,-12.146 10.659,-15.848c3.163,-3 4.961,-4.8 5.125,-6.843c0.2,-2.521 -1.78,-5.932 -5.584,-9.606a8,8 0 0 1 11.118,-11.508c7.52,7.266 11.025,14.8 10.416,22.395c-0.663,8.259 -5.877,13.2 -10.067,17.174c-3.341,3.167 -5.426,5.255 -6.149,8.134c-1.352,5.383 2.83,12.307 6.577,17.166a8,8 0 0 1 -6.33,12.885z"/>
   <circle id="svg_30" r="8" fill="#ffffff" cy="24" cx="274"/>
   <circle id="svg_31" r="8" fill="#fdc47d" cy="456" cx="258"/>
   <circle id="svg_32" r="8" fill="#fdc47d" cy="352" cx="258"/>
   <circle id="svg_33" r="8" fill="#ffffff" cy="208" cx="418"/>
   <circle id="svg_34" r="8" fill="#ffffff" cy="216" cx="106"/>
   <circle id="svg_35" r="8" fill="#ffffff" cy="128" cx="34"/>
   <path id="svg_36" fill="#ffffff" d="m242,80a56,56 0 0 0 -112,0c0,30.928 25.072,88 56,88s56,-57.072 56,-88z"/>
   <path id="svg_37" fill="#f968af" d="m186,24a56.435,56.435 0 0 0 -8,0.578a56,56 0 0 1 48,55.422c0,28.211 -20.862,78.167 -48,86.727a26.506,26.506 0 0 0 8,1.273c30.928,0 56,-57.072 56,-88a56,56 0 0 0 -56,-56z"/>
   <path id="svg_38" fill="#ffffff" d="m386,104a56,56 0 0 0 -112,0c0,30.928 25.072,88 56,88s56,-57.072 56,-88z"/>
   <path id="svg_39" fill="#ffaad4" d="m330,48a56.435,56.435 0 0 0 -8,0.578a56,56 0 0 1 48,55.422c0,28.211 -20.862,78.167 -48,86.727a26.506,26.506 0 0 0 8,1.273c30.928,0 56,-57.072 56,-88a56,56 0 0 0 -56,-56z"/>
   <path id="svg_40" fill="#ff6bb2" d="m218,184a24.111,24.111 0 0 0 -19.2,9.6l-12.8,17.067l-12.8,-17.067a24,24 0 1 0 -19.2,38.4l10.805,0a52.724,52.724 0 0 0 -10.805,32a8,8 0 0 0 16,0a36.768,36.768 0 0 1 16.406,-30.656l1.087,-0.725l4.024,1.006a37.907,37.907 0 0 1 26.893,24.9a8,8 0 1 0 15.18,-5.058a54.023,54.023 0 0 0 -13.484,-21.567a24,24 0 0 0 -2.106,-47.9zm-72,24a8,8 0 0 1 14.4,-4.8l9.6,12.8l-16,0a8.009,8.009 0 0 1 -8,-8zm72,8l-16,0l9.6,-12.8a8,8 0 1 1 6.4,12.8z"/>
   <path id="svg_41" fill="#ffaad2" d="m386,232a24,24 0 0 0 -43.2,-14.4l-12.8,17.067l-12.8,-17.067a24,24 0 1 0 -19.2,38.4l0.625,0a38.76,38.76 0 0 0 -6.208,13.344l-2.179,8.717a8,8 0 1 0 15.524,3.878l2.177,-8.715a22.693,22.693 0 0 1 21.218,-17.188l7.619,1.9a22.709,22.709 0 0 1 17.224,22.064a8,8 0 0 0 16,0a38.665,38.665 0 0 0 -8.316,-24l0.316,0a24.028,24.028 0 0 0 24,-24zm-30.4,-4.8a8,8 0 1 1 6.4,12.8l-16,0l9.6,-12.8zm-65.6,4.8a8,8 0 0 1 14.4,-4.8l9.6,12.8l-16,0a8.009,8.009 0 0 1 -8,-8z"/>
  </g>
  <text font-weight="bold" xml:space="preserve" text-anchor="start" font-family="Euphoria, sans-serif" font-size="48" id="svg_42" y="416" x="174.5" stroke-opacity="null" stroke-width="0" stroke="null" fill="#ff007f">FestoShop</text>
 </g>
</svg>