<?xml version="1.0" standalone="no"?>
<!DOCTYPE svg PUBLIC "-//W3C//DTD SVG 20010904//EN"
 "http://www.w3.org/TR/2001/REC-SVG-20010904/DTD/svg10.dtd">
<svg version="1.0" xmlns="http://www.w3.org/2000/svg"
 width="1057.000000pt" height="1280.000000pt" viewBox="0 0 1057.000000 1280.000000"
 preserveAspectRatio="xMidYMid meet">
<g transform="translate(0.000000,1280.000000) scale(0.100000,-0.100000)"
fill="#000000" stroke="none">
<path d="M3945 12789 c-22 -5 -80 -19 -130 -30 -526 -122 -1170 -654 -1428
-1180 -105 -215 -142 -386 -134 -609 7 -175 29 -268 92 -396 132 -268 379
-452 805 -598 83 -29 152 -57 153 -62 1 -5 -634 -10 -1651 -12 l-1652 -2 0
-1140 0 -1140 5285 0 5285 0 0 1140 0 1140 -1685 0 c-980 0 -1685 4 -1685 9 0
5 76 47 169 94 93 47 227 118 298 158 456 255 674 423 750 576 34 70 37 81 41
186 3 96 0 126 -22 211 -65 252 -255 548 -520 811 -251 248 -538 444 -815 555
-349 140 -665 139 -906 -2 -123 -73 -280 -251 -337 -383 -10 -22 -76 -193
-149 -380 -253 -656 -413 -1026 -476 -1104 -25 -30 -40 -23 -93 48 -102 136
-162 322 -265 821 -112 541 -197 795 -336 995 -61 89 -166 190 -240 233 -100
57 -256 83 -354 61z"/>
<path d="M510 3740 l0 -3740 4775 0 4775 0 0 3740 0 3740 -4775 0 -4775 0 0
-3740z"/>
</g>
</svg>
