<?xml version="1.0" standalone="no"?>
<!DOCTYPE svg PUBLIC "-//W3C//DTD SVG 20010904//EN"
 "http://www.w3.org/TR/2001/REC-SVG-20010904/DTD/svg10.dtd">
<svg version="1.0" xmlns="http://www.w3.org/2000/svg"
 width="1280.000000pt" height="1072.000000pt" viewBox="0 0 1280.000000 1072.000000"
 preserveAspectRatio="xMidYMid meet">
<g transform="translate(0.000000,1072.000000) scale(0.100000,-0.100000)"
fill="#000000" stroke="none">
<path d="M4189 10716 c-2 -3 -103 -9 -224 -15 -242 -11 -343 -30 -485 -90
-217 -93 -434 -275 -617 -519 -217 -288 -297 -473 -297 -687 0 -134 17 -207
79 -330 135 -272 425 -513 900 -750 408 -202 976 -401 1575 -550 215 -53 220
-55 220 -65 0 -6 -604 -10 -1659 -10 l-1660 0 -348 -146 c-191 -80 -359 -152
-373 -160 -21 -11 307 -13 2087 -14 1322 0 2114 -4 2118 -9 3 -6 -2 -14 -12
-20 -28 -15 -1423 -561 -1434 -561 -5 0 -9 -1309 -9 -3395 l0 -3395 670 0 670
0 2 3401 3 3400 737 290 738 289 1967 -2 1968 -3 3 -3392 c1 -1866 5 -3393 10
-3393 4 0 144 57 312 128 l305 127 0 3425 0 3425 -1703 3 c-1226 1 -1703 5
-1700 13 2 6 64 30 138 53 196 61 263 88 480 197 202 101 428 243 580 365 122
98 303 283 391 400 133 177 225 362 276 554 25 96 27 120 27 280 -1 201 -14
268 -83 416 -195 416 -663 647 -1256 620 -287 -12 -471 -52 -651 -140 -233
-114 -415 -248 -609 -447 -162 -167 -287 -334 -407 -544 -240 -422 -415 -1001
-483 -1600 -9 -76 -21 -145 -27 -152 -17 -21 -57 -16 -68 10 -5 12 -84 320
-175 684 -92 364 -191 745 -221 845 -196 648 -399 940 -875 1260 -180 120
-271 156 -483 188 -115 18 -384 28 -397 16z m-644 -301 c166 -42 356 -143 581
-310 394 -293 949 -866 1486 -1537 314 -392 652 -844 642 -859 -3 -5 -64 -9
-137 -9 l-131 0 -220 116 c-1311 692 -2224 1321 -2602 1792 -93 117 -176 269
-194 358 -35 169 37 327 191 417 103 61 230 71 384 32z m5892 -90 c64 -19 125
-64 160 -117 24 -36 28 -51 28 -113 -1 -63 -6 -82 -42 -156 -51 -105 -104
-180 -218 -309 -297 -336 -878 -792 -1725 -1355 l-305 -203 -348 -136 c-191
-75 -352 -136 -357 -136 -23 0 -4 32 108 179 390 516 832 1042 1175 1399 616
641 1077 959 1393 961 44 1 103 -6 131 -14z"/>
<path d="M5600 8165 c0 -2 18 -14 41 -25 l40 -21 -17 26 c-10 15 -26 25 -40
25 -13 0 -24 -2 -24 -5z"/>
<path d="M3057 8045 c-170 -68 -311 -126 -315 -129 -3 -3 260 -6 583 -6 361 0
585 4 579 9 -5 5 -79 40 -164 76 -85 37 -203 92 -262 121 -59 30 -109 54 -110
53 -2 0 -142 -56 -311 -124z"/>
<path d="M9315 8109 c-44 -34 -124 -91 -178 -127 -54 -35 -97 -66 -95 -67 3
-3 1754 -4 2233 -1 158 1 240 -17 328 -73 l47 -31 0 -3399 c0 -2116 4 -3402 9
-3406 6 -3 264 96 575 221 l566 226 0 3359 0 3359 -1703 0 -1703 0 -79 -61z"/>
<path d="M470 7010 c-234 -94 -435 -173 -447 -176 l-23 -6 0 -3364 0 -3364
1904 2 c1047 2 1907 5 1910 8 3 3 4 1419 3 3145 -2 3626 -2 3407 13 3510 16
114 26 139 70 179 53 48 115 78 240 116 224 69 262 82 250 90 -7 4 -567 5
-1244 3 -1118 -5 -1920 3 -2181 23 l-70 5 -425 -171z"/>
<path d="M6920 7131 c-220 -52 -380 -108 -797 -282 -174 -72 -362 -149 -418
-170 l-100 -38 -3 -3262 c-2 -2604 0 -3264 10 -3271 7 -4 868 -8 1913 -8
l1899 0 578 231 578 231 0 3294 0 3294 -1792 -1 c-1671 -1 -1798 -2 -1868 -18z"/>
</g>
</svg>
