<svg xmlns="http://www.w3.org/2000/svg" xmlns:xlink="http://www.w3.org/1999/xlink" version="1.1" width="25" height="19" style=""><rect id="backgroundrect" width="100%" height="100%" x="0" y="0" fill="none" stroke="none"/>

<g class="currentLayer" style=""><title>Layer 1</title><path id="Group" d="M0,12.34939676444734 C0.03114667170422806,12.18835199826383 0.06424001038997033,12.027307232080316 0.09246668162192702,11.865280485615202 C0.17909336229931128,11.367416482840566 0.4311867364054069,11.001137837801238 0.8964401449873132,10.768408511060432 C1.7247469456216271,10.354994812503982 2.600747087303041,10.079058353372478 3.5098405676701967,9.945509035073957 C4.229134017339712,9.840437144942033 4.697307426393889,9.48201434215556 4.992227474093299,8.831943395731875 C4.961080802389071,8.795610125312427 4.923120796249544,8.75829487461137 4.891000791054558,8.717051702783884 C4.621387414114834,8.369430683095086 4.299214028674225,8.049305111291277 4.093840662124472,7.66829676202785 C3.457280559169311,6.489920424099721 3.025120489273148,5.24575140730394 3.093253833626146,3.8798168355889175 C3.158467177506874,2.5826208835863693 3.618853918634995,1.4690552442442883 4.6807607570510195,0.6628494330451276 C6.145627660640493,-0.44875224573374056 9.122081475375785,-0.22093282040096887 10.205401650588465,1.8058744808354117 C10.216108318986795,1.826496066749154 10.232654988329664,1.8431897315364696 10.255041658617078,1.873631120266279 C11.581695206519042,1.4170102893191296 12.905428753948732,1.418974249882343 14.218455632980097,1.934513897725899 C14.370295657538206,1.7135683343643753 14.507535679734962,1.4837849484683903 14.674949040145188,1.2785510696125744 C15.515909176159346,0.2523816753334961 16.637189357511552,-0.08443756125762736 17.91809623134793,0.02554423028233136 C19.071496417895126,0.12374225844300876 20.04482990865225,0.5823270499533721 20.699883347931795,1.566271292123359 C21.157350088587645,2.251693528684887 21.352990120229826,3.024512010309418 21.359803454665126,3.8493754468591073 C21.374403457026485,5.478480734044744 20.820576700785683,6.916099866317062 19.892016550603387,8.229989483106925 C19.779109865675558,8.390052269008828 19.6418698434788,8.540295252094666 19.491976485902203,8.664024767577118 C19.345003128797877,8.785790322496357 19.333323126908795,8.883006370375428 19.434549809947534,9.037177274587691 C19.728496524156185,9.489870184408414 20.076949913847237,9.820797539309897 20.65900334132,9.909175764654506 C21.567123488196394,10.046653004079456 22.44215029638705,10.315715601239711 23.28797709985499,10.688868108250285 C23.937190538189995,10.974624370197857 24.233083919380164,11.470524412409278 24.28661726137181,12.141216944746704 C24.313870599113006,12.478036181337826 24.327497267983606,12.816819378492163 24.333337268928148,13.1556025756465 C24.33917726987269,13.494385772800836 24.198043913712908,13.629899051662573 23.862243859401698,13.629899051662573 C21.605083494335922,13.629899051662573 19.34694979577939,13.628917071380965 17.089789430713616,13.628917071380965 C16.515522671166913,13.628917071380965 15.940282578129452,13.628917071380965 15.36504248509199,13.628917071380965 C15.360175817638204,13.654448558702741 15.354335816693661,13.680962026306124 15.348495815749118,13.707475493909508 C15.546082514372815,13.759520448834667 15.741722546014994,13.823349167139105 15.94125591162021,13.860664417840162 C17.07129609438923,14.074736119230442 18.171162938944786,14.375222085402113 19.231123110379293,14.833806876912476 C20.065269911958147,15.196157600825376 20.4477899738257,15.817751119082464 20.489643313928255,16.688767628867673 C20.505216649780373,17.0118391415163 20.522736652614,17.33392867388332 20.527603320067783,17.657000186531953 C20.533443321012328,18.041936456921807 20.40496330023239,18.165665972404256 20.01757657091105,18.165665972404256 C16.533042674000537,18.165665972404256 13.047535443599273,18.165665972404256 9.562028213198005,18.165665972404256 C7.819761264742751,18.165665972404256 6.076520982796738,18.165665972404256 4.334254034341483,18.165665972404256 C3.915720633315918,18.165665972404256 3.783347278572949,18.04881031889305 3.8057339488603628,17.632450679491782 C3.8320139531108053,17.130658755590723 3.8709472927410906,16.62788485140805 3.943947304547874,16.131002828915022 C4.018893983336173,15.615463181071467 4.323547365943153,15.249184536032143 4.7878274410343025,15.000743524785626 C5.695947587910701,14.515645265671882 6.673174412630855,14.233816924850737 7.669867907166152,14.006979479799572 C7.98620129166222,13.93529491924228 8.307401343612069,13.88619590516194 8.623734728108134,13.815493324886253 C8.748321414925046,13.787997877001262 8.86609476730666,13.730061040386461 8.986788120160544,13.686853907995765 C8.980948119216,13.66721430236363 8.976081451762214,13.647574696731493 8.97121478430843,13.627935091099358 C8.325894679936457,13.627935091099358 7.680574575564481,13.627935091099358 7.035254471192506,13.627935091099358 C4.864720786804115,13.627935091099358 2.6951604359064816,13.625971130536144 0.524626751518091,13.631863012225784 C0.299786715153195,13.632844992507392 0.12458668681691218,13.579818057300626 0,13.390295862950518 C0,13.043656823543328 0,12.69603580385453 0,12.34939676444734 zM19.76158986284193,17.399721352750976 C19.7508831944436,17.201361335866405 19.727523190665426,17.022640924613977 19.73336319160997,16.843920513361542 C19.752829861425113,16.163408178208048 19.44720314532738,15.730354874019458 18.80577637491843,15.470130099393664 C17.848016220013417,15.082247888158989 16.866896061330234,14.787653803676957 15.84976256348904,14.622681116367021 C15.251162466673408,14.526447048769557 14.727509048646072,14.294699702310357 14.360562322630635,13.826295107983926 C14.032548936245485,13.408953488301048 13.766828893268787,12.93956691369301 13.501108850292095,12.478036181337826 C13.375548829984426,12.259054578539516 13.442708840846665,12.095063871511186 13.657815542303993,11.953658710959811 C14.140588953719526,11.634515119437609 14.53186901700389,11.225029342007584 14.852095735462983,10.749750885709904 C15.731989211107427,9.441753150609683 16.21573595601372,8.007079959182185 16.204055954124634,6.422163784668854 C16.197242619689334,5.590426486147919 16.05902926400182,4.785202655230362 15.604482523818245,4.072284970783845 C14.878375739713428,2.9322058638383806 13.796028897991503,2.407828393460364 12.467428683108025,2.3106123455812937 C9.99710828356644,2.1309099540472536 8.174054655378344,3.783582767991454 8.125387980840488,6.244425353698028 C8.103001310553074,7.43065753387901 8.33465468135327,8.55698891688198 8.841761430037732,9.631275344959791 C9.278788167387681,10.558264730796585 9.827748256174699,11.390002029317522 10.700828397383843,11.972316336310339 C10.893548428553753,12.100955753200825 10.94513510356388,12.294405868677359 10.828335084673025,12.489819944717107 C10.557748374242543,12.93956691369301 10.297868332210394,13.4020796263298 9.97666828026054,13.81647530516786 C9.667148230199777,14.215159299500208 9.235961493794369,14.47342011356279 8.724961411146877,14.575546062849893 C8.259708002564972,14.667852209320932 7.783747925584736,14.728734986780552 7.3350411863457,14.873086088176748 C6.599201067333315,15.107779375480767 5.877960950682283,15.386661775457089 5.161587501485038,15.675363978249482 C5.001960809000871,15.739192696553921 4.835520782081401,15.896309541611005 4.7644674372561315,16.05244440638648 C4.572720739576979,16.472731966914182 4.586347408447577,16.93524467955097 4.568827405613948,17.399721352750976 C9.636001558495547,17.399721352750976 14.678842374108214,17.399721352750976 19.76158986284193,17.399721352750976 zM14.91146907839917,2.2998105624836187 C14.987389090678224,2.3538194779719914 15.050655767577439,2.398990570925903 15.113922444476652,2.4461256244430283 C15.598642522873698,2.810440308919141 16.00841592248245,3.239565691981301 16.30820263763564,3.7727809848937794 C16.961309409933676,4.9305357369081655 17.080056095806047,6.1796146551119815 16.900962733506738,7.459134962045607 C16.62842935609474,9.405419880190232 15.851709230470554,11.10719170821477 14.33525565187095,12.427955186975883 C14.51434901417026,12.872792254543748 14.51434901417026,12.872792254543748 14.986415757187467,12.872792254543748 C17.74970953744695,12.871810274262144 20.513003317706428,12.871810274262144 23.27629709796591,12.871810274262144 C23.36779044609708,12.871810274262144 23.45928379422825,12.871810274262144 23.57121714566532,12.871810274262144 C23.556617143303964,12.672468277095968 23.531310472544273,12.508477570067635 23.534230473016546,12.344486863039306 C23.542017140942608,11.803415727873972 23.285057099382723,11.48132619550695 22.77600368371675,11.285912119467204 C21.997336891111047,10.986408133577138 21.20309676265323,10.758588708244366 20.381603296454216,10.624057409664239 C19.941656558631998,10.551390868825338 19.549403161856873,10.377580358980937 19.27589645095412,10.036833201263388 C18.986816404199256,9.678410398476915 18.742509698019216,9.280708384426172 18.50793632674675,8.883006370375428 C18.380429639457567,8.666970708421939 18.46413631966268,8.531457429560204 18.65977635130486,8.354700978870984 C18.933283062207618,8.107241947906079 19.232096443870052,7.865674798630811 19.429683142493747,7.563224871895925 C20.229763271896108,6.341641401577099 20.703776681894826,5.014986041126348 20.577243328096397,3.5302318553369063 C20.4954833148728,2.5747650413335155 20.13632325678342,1.7587394273182864 19.28270978538942,1.2333799766586628 C18.51766966165432,0.7630114217690183 17.67865619262168,0.6697232950163747 16.811416052357078,0.8317500414814926 C15.936389244166422,0.995740748509824 15.32124247800792,1.5112803963533796 14.91146907839917,2.2998105624836187 zM9.54645487734589,2.1682252047483113 C9.473454865539106,2.061189354053173 9.395588186278538,1.9325499371626855 9.302148171165854,1.8166762639330865 C8.774601419175491,1.1616954161013684 8.061147970450516,0.8621914302113024 7.242574504723774,0.7836330076827606 C5.942200961072254,0.6599034922003073 4.8257874471738305,1.1253621456819176 4.2106406810153265,2.4137202751500046 C3.970227308798317,2.9155121990510664 3.8651072917965474,3.4408716497106897 3.8534272899074615,3.9897986271288755 C3.8242272851847483,5.309580125608379 4.26709402347924,6.494830325507755 4.942587466064686,7.600540122596983 C5.1138941604379395,7.881386483136519 5.386427537849935,8.108223928187684 5.640467578937545,8.328187511267602 C5.8876942855898555,8.542259212657877 5.9412276275814975,8.655186945042656 5.799120937930956,8.957636871777543 C5.356254199636464,9.90230190268326 4.716774096209033,10.569066513894258 3.595493914856823,10.701633851911174 C2.81098712130658,10.794921978663817 2.0517869985160218,11.044344970191938 1.3402802167725627,11.401785792696803 C1.1962268601405077,11.474452333535705 1.0181068313319537,11.562830558880314 0.9538668209419834,11.692451956052409 C0.7747734586426723,12.055784660246914 0.779640126096458,12.460360536268906 0.7708801246796437,12.870828293980535 C1.846413631966268,12.870828293980535 2.8908004675486643,12.870828293980535 3.9351873031310607,12.870828293980535 C5.8195609412368565,12.870828293980535 7.704907912833408,12.868864333417322 9.589281550939205,12.873774234825355 C9.728468240117472,12.873774234825355 9.812174920322587,12.835477003842692 9.863761595332713,12.709783527797025 C9.904641601944514,12.610603519354742 9.955254943463883,12.515351432038885 9.99710828356644,12.427955186975883 C9.7936815839982,12.236469032062562 9.59414821839299,12.078370206723871 9.428681524964277,11.88982999265537 C7.9307212826890625,10.181184302659583 7.25717450708513,8.184818390153014 7.3837078608835585,5.928227703020647 C7.4450278708012565,4.84706741297159 7.804187928890636,3.8611592102383887 8.549761382810596,3.0520074581944074 C8.841761430037732,2.7358098075170263 9.195081487182568,2.476567013172838 9.54645487734589,2.1682252047483113 z" fill="#757575" class="" stroke="#ffffff" stroke-opacity="1" stroke-width="0.7"/></g></svg>