<svg width="551.034" height="551.034" xmlns="http://www.w3.org/2000/svg">

 <g>
  <title>background</title>
  <rect fill="none" id="canvas_background" height="410.788" width="410.788" y="-1" x="-1"/>
 </g>
 <g>
  <title>Layer 1</title>
  <g id="svg_1">
   <path id="svg_2" fill="#ffffff" d="m386.878,0l-222.722,0c-90.516,0 -164.156,73.64 -164.156,164.156l0,222.722c0,90.516 73.64,164.156 164.156,164.156l222.722,0c90.516,0 164.156,-73.64 164.156,-164.156l0,-222.722c-0.001,-90.516 -73.641,-164.156 -164.156,-164.156zm108.722,386.878c0,60.045 -48.677,108.722 -108.722,108.722l-222.722,0c-60.045,0 -108.722,-48.677 -108.722,-108.722l0,-222.722c0,-60.046 48.677,-108.722 108.722,-108.722l222.722,0c60.045,0 108.722,48.676 108.722,108.722l0,222.722l0,0z"/>
   <path id="svg_3" fill="#ffffff" d="m275.517,133c-78.584,0 -142.517,63.933 -142.517,142.516s63.933,142.517 142.517,142.517s142.517,-63.933 142.517,-142.517s-63.933,-142.516 -142.517,-142.516zm0,229.6c-48.095,0 -87.083,-38.988 -87.083,-87.083s38.989,-87.083 87.083,-87.083c48.095,0 87.083,38.988 87.083,87.083c0,48.094 -38.989,87.083 -87.083,87.083z"/>
   <circle id="svg_4" fill="#ffffff" r="34.15" cy="134.07" cx="418.31"/>
  </g>
  <g id="svg_5"/>
  <g id="svg_6"/>
  <g id="svg_7"/>
  <g id="svg_8"/>
  <g id="svg_9"/>
  <g id="svg_10"/>
  <g id="svg_11"/>
  <g id="svg_12"/>
  <g id="svg_13"/>
  <g id="svg_14"/>
  <g id="svg_15"/>
  <g id="svg_16"/>
  <g id="svg_17"/>
  <g id="svg_18"/>
  <g id="svg_19"/>
 </g>
</svg>